# xmcd
#
# Track frame offsets: 
#        150
#        12875
#        24844
#        36376
#        50256
#        62462
#        74099
#        89226
#        100392
#        112141
#        122869
#        136265
#        148867
#        161914
#
# Disc length: 2308 seconds
#
# Revision: 0
# Processed by: cddbd v1.5.1PL2 Copyright (c) Steve Scherf et al.
# Submitted via: ExactAudioCopy v0.95b3
#
DISCID=d209020e
DTITLE=Declan Nerney - The One And Only
DYEAR=2003
DGENRE=Country
TTITLE0=Your Wanting Me Is Gone
TTITLE1=Good Night and God Bless
TTITLE2=Will You Love Me That Way
TTITLE3=Brennan On The Moor
TTITLE4=The Blazin Star Of Athenry
TTITLE5=Just A Little Too Much
TTITLE6=Big Hat, No Cattle
TTITLE7=Sing The Blues To Daddy
TTITLE8=The Hills Of Inishowen
TTITLE9=The Sea Cruise
TTITLE10=Crazy In Love With You
TTITLE11=The One And Only
TTITLE12=Back Home In Co. Antrim
TTITLE13=Do You Wanna Do It?
EXTD=
EXTT0=
EXTT1=
EXTT2=
EXTT3=
EXTT4=
EXTT5=
EXTT6=
EXTT7=
EXTT8=
EXTT9=
EXTT10=
EXTT11=
EXTT12=
EXTT13=
PLAYORDER=
